<mxfile host="app.diagrams.net" modified="2023-10-18T14:44:54.072Z" agent="Mozilla/5.0 (Windows NT 10.0; Win64; x64) AppleWebKit/537.36 (KHTML, like Gecko) Chrome/117.0.0.0 Safari/537.36 Edg/117.0.2045.60" etag="p8XVufjrDSavVqUBbmzF" version="22.0.4" type="device">
  <diagram name="Page-1" id="gkvECLHzkDA0Osc9fUNR">
    <mxGraphModel dx="3815" dy="3008" grid="1" gridSize="10" guides="1" tooltips="1" connect="1" arrows="1" fold="1" page="1" pageScale="1" pageWidth="850" pageHeight="1100" math="0" shadow="0">
      <root>
        <mxCell id="0" />
        <mxCell id="1" parent="0" />
        <mxCell id="TotqGo9eTT_ibzo0r7ut-144" value="" style="rounded=0;whiteSpace=wrap;html=1;fillColor=#b0e3e6;strokeColor=#0e8088;opacity=50;" vertex="1" parent="1">
          <mxGeometry x="140" y="590" width="990" height="1170" as="geometry" />
        </mxCell>
        <mxCell id="TotqGo9eTT_ibzo0r7ut-122" value="" style="rounded=0;whiteSpace=wrap;html=1;fillColor=#b1ddf0;strokeColor=#10739e;" vertex="1" parent="1">
          <mxGeometry x="330" y="960" width="150" height="520" as="geometry" />
        </mxCell>
        <mxCell id="TotqGo9eTT_ibzo0r7ut-2" value="User" style="rounded=0;whiteSpace=wrap;html=1;fillColor=#1ba1e2;strokeColor=#006EAF;fontColor=#ffffff;" vertex="1" parent="1">
          <mxGeometry x="360" y="380" width="90" height="40" as="geometry" />
        </mxCell>
        <mxCell id="TotqGo9eTT_ibzo0r7ut-3" value="IS-A" style="triangle;whiteSpace=wrap;html=1;rotation=90;" vertex="1" parent="1">
          <mxGeometry x="372.5" y="487.5" width="65" height="80" as="geometry" />
        </mxCell>
        <mxCell id="TotqGo9eTT_ibzo0r7ut-4" value="" style="endArrow=none;html=1;rounded=0;entryX=0.5;entryY=1;entryDx=0;entryDy=0;exitX=0;exitY=0.5;exitDx=0;exitDy=0;" edge="1" parent="1" source="TotqGo9eTT_ibzo0r7ut-3" target="TotqGo9eTT_ibzo0r7ut-2">
          <mxGeometry width="50" height="50" relative="1" as="geometry">
            <mxPoint x="110" y="640" as="sourcePoint" />
            <mxPoint x="160" y="590" as="targetPoint" />
          </mxGeometry>
        </mxCell>
        <mxCell id="TotqGo9eTT_ibzo0r7ut-5" value="Admin" style="rounded=0;whiteSpace=wrap;html=1;fillColor=#008a00;strokeColor=#005700;fontColor=#ffffff;" vertex="1" parent="1">
          <mxGeometry x="-160" y="620" width="120" height="60" as="geometry" />
        </mxCell>
        <mxCell id="TotqGo9eTT_ibzo0r7ut-7" value="Custumer" style="rounded=0;whiteSpace=wrap;html=1;fillColor=#fa6800;fontColor=#000000;strokeColor=#C73500;" vertex="1" parent="1">
          <mxGeometry x="850" y="620" width="120" height="60" as="geometry" />
        </mxCell>
        <mxCell id="TotqGo9eTT_ibzo0r7ut-8" value="Supplier" style="rounded=0;whiteSpace=wrap;html=1;fillColor=#d80073;fontColor=#ffffff;strokeColor=#A50040;" vertex="1" parent="1">
          <mxGeometry x="345" y="620" width="120" height="60" as="geometry" />
        </mxCell>
        <mxCell id="TotqGo9eTT_ibzo0r7ut-9" value="" style="endArrow=none;html=1;rounded=0;entryX=0.5;entryY=0;entryDx=0;entryDy=0;exitX=0.5;exitY=0;exitDx=0;exitDy=0;" edge="1" parent="1" source="TotqGo9eTT_ibzo0r7ut-3" target="TotqGo9eTT_ibzo0r7ut-7">
          <mxGeometry width="50" height="50" relative="1" as="geometry">
            <mxPoint x="415" y="505" as="sourcePoint" />
            <mxPoint x="415" y="430" as="targetPoint" />
          </mxGeometry>
        </mxCell>
        <mxCell id="TotqGo9eTT_ibzo0r7ut-10" value="" style="endArrow=none;html=1;rounded=0;entryX=1;entryY=0.5;entryDx=0;entryDy=0;exitX=0.5;exitY=0;exitDx=0;exitDy=0;" edge="1" parent="1" source="TotqGo9eTT_ibzo0r7ut-8" target="TotqGo9eTT_ibzo0r7ut-3">
          <mxGeometry width="50" height="50" relative="1" as="geometry">
            <mxPoint x="425" y="515" as="sourcePoint" />
            <mxPoint x="425" y="440" as="targetPoint" />
          </mxGeometry>
        </mxCell>
        <mxCell id="TotqGo9eTT_ibzo0r7ut-11" value="" style="endArrow=none;html=1;rounded=0;entryX=0.5;entryY=0;entryDx=0;entryDy=0;exitX=0.5;exitY=1;exitDx=0;exitDy=0;" edge="1" parent="1" source="TotqGo9eTT_ibzo0r7ut-3" target="TotqGo9eTT_ibzo0r7ut-5">
          <mxGeometry width="50" height="50" relative="1" as="geometry">
            <mxPoint x="435" y="525" as="sourcePoint" />
            <mxPoint x="435" y="450" as="targetPoint" />
          </mxGeometry>
        </mxCell>
        <mxCell id="TotqGo9eTT_ibzo0r7ut-17" value="FullName" style="ellipse;whiteSpace=wrap;html=1;align=center;" vertex="1" parent="1">
          <mxGeometry x="290" y="270" width="100" height="40" as="geometry" />
        </mxCell>
        <mxCell id="TotqGo9eTT_ibzo0r7ut-18" value="UserId" style="ellipse;whiteSpace=wrap;html=1;align=center;fontStyle=4;" vertex="1" parent="1">
          <mxGeometry x="437.5" y="270" width="100" height="40" as="geometry" />
        </mxCell>
        <mxCell id="TotqGo9eTT_ibzo0r7ut-19" value="Email" style="ellipse;whiteSpace=wrap;html=1;align=center;" vertex="1" parent="1">
          <mxGeometry x="490" y="310" width="100" height="40" as="geometry" />
        </mxCell>
        <mxCell id="TotqGo9eTT_ibzo0r7ut-20" value="Personal Nr" style="ellipse;whiteSpace=wrap;html=1;align=center;" vertex="1" parent="1">
          <mxGeometry x="220" y="310" width="100" height="40" as="geometry" />
        </mxCell>
        <mxCell id="TotqGo9eTT_ibzo0r7ut-23" value="Address" style="ellipse;whiteSpace=wrap;html=1;align=center;" vertex="1" parent="1">
          <mxGeometry x="220" y="370" width="100" height="40" as="geometry" />
        </mxCell>
        <mxCell id="TotqGo9eTT_ibzo0r7ut-24" value="" style="endArrow=none;html=1;rounded=0;exitX=0.5;exitY=1;exitDx=0;exitDy=0;entryX=0.867;entryY=-0.033;entryDx=0;entryDy=0;entryPerimeter=0;" edge="1" parent="1" source="TotqGo9eTT_ibzo0r7ut-18" target="TotqGo9eTT_ibzo0r7ut-2">
          <mxGeometry width="50" height="50" relative="1" as="geometry">
            <mxPoint x="435" y="538" as="sourcePoint" />
            <mxPoint x="700" y="630" as="targetPoint" />
          </mxGeometry>
        </mxCell>
        <mxCell id="TotqGo9eTT_ibzo0r7ut-28" value="" style="endArrow=none;html=1;rounded=0;exitX=0.5;exitY=1;exitDx=0;exitDy=0;entryX=0.5;entryY=0;entryDx=0;entryDy=0;" edge="1" parent="1" source="TotqGo9eTT_ibzo0r7ut-17" target="TotqGo9eTT_ibzo0r7ut-2">
          <mxGeometry width="50" height="50" relative="1" as="geometry">
            <mxPoint x="420" y="230" as="sourcePoint" />
            <mxPoint x="420" y="390" as="targetPoint" />
          </mxGeometry>
        </mxCell>
        <mxCell id="TotqGo9eTT_ibzo0r7ut-30" value="" style="endArrow=none;html=1;rounded=0;exitX=0;exitY=0.5;exitDx=0;exitDy=0;" edge="1" parent="1" source="TotqGo9eTT_ibzo0r7ut-34">
          <mxGeometry width="50" height="50" relative="1" as="geometry">
            <mxPoint x="530" y="310" as="sourcePoint" />
            <mxPoint x="450" y="400" as="targetPoint" />
          </mxGeometry>
        </mxCell>
        <mxCell id="TotqGo9eTT_ibzo0r7ut-31" value="" style="endArrow=none;html=1;rounded=0;entryX=1;entryY=0.25;entryDx=0;entryDy=0;" edge="1" parent="1" source="TotqGo9eTT_ibzo0r7ut-19" target="TotqGo9eTT_ibzo0r7ut-2">
          <mxGeometry width="50" height="50" relative="1" as="geometry">
            <mxPoint x="450" y="260" as="sourcePoint" />
            <mxPoint x="440" y="320" as="targetPoint" />
          </mxGeometry>
        </mxCell>
        <mxCell id="TotqGo9eTT_ibzo0r7ut-32" value="" style="endArrow=none;html=1;rounded=0;entryX=0;entryY=0.5;entryDx=0;entryDy=0;exitX=0.99;exitY=0.675;exitDx=0;exitDy=0;exitPerimeter=0;" edge="1" parent="1" source="TotqGo9eTT_ibzo0r7ut-23" target="TotqGo9eTT_ibzo0r7ut-2">
          <mxGeometry width="50" height="50" relative="1" as="geometry">
            <mxPoint x="280" y="400" as="sourcePoint" />
            <mxPoint x="415" y="390" as="targetPoint" />
          </mxGeometry>
        </mxCell>
        <mxCell id="TotqGo9eTT_ibzo0r7ut-33" value="" style="endArrow=none;html=1;rounded=0;exitX=1;exitY=1;exitDx=0;exitDy=0;" edge="1" parent="1" source="TotqGo9eTT_ibzo0r7ut-20">
          <mxGeometry width="50" height="50" relative="1" as="geometry">
            <mxPoint x="280" y="250" as="sourcePoint" />
            <mxPoint x="360" y="400" as="targetPoint" />
          </mxGeometry>
        </mxCell>
        <mxCell id="TotqGo9eTT_ibzo0r7ut-34" value="Phone Nr" style="ellipse;shape=doubleEllipse;margin=3;whiteSpace=wrap;html=1;align=center;" vertex="1" parent="1">
          <mxGeometry x="500" y="360" width="100" height="40" as="geometry" />
        </mxCell>
        <mxCell id="TotqGo9eTT_ibzo0r7ut-50" style="edgeStyle=orthogonalEdgeStyle;rounded=0;orthogonalLoop=1;jettySize=auto;html=1;exitX=1;exitY=0.5;exitDx=0;exitDy=0;entryX=0.5;entryY=0;entryDx=0;entryDy=0;" edge="1" parent="1" source="TotqGo9eTT_ibzo0r7ut-41" target="TotqGo9eTT_ibzo0r7ut-47">
          <mxGeometry relative="1" as="geometry" />
        </mxCell>
        <mxCell id="TotqGo9eTT_ibzo0r7ut-41" value="Creates" style="shape=rhombus;perimeter=rhombusPerimeter;whiteSpace=wrap;html=1;align=center;rotation=90;" vertex="1" parent="1">
          <mxGeometry x="345" y="810" width="120" height="60" as="geometry" />
        </mxCell>
        <mxCell id="TotqGo9eTT_ibzo0r7ut-51" style="edgeStyle=orthogonalEdgeStyle;rounded=0;orthogonalLoop=1;jettySize=auto;html=1;exitX=1;exitY=0.5;exitDx=0;exitDy=0;entryX=0.5;entryY=0;entryDx=0;entryDy=0;" edge="1" parent="1" source="TotqGo9eTT_ibzo0r7ut-42" target="TotqGo9eTT_ibzo0r7ut-48">
          <mxGeometry relative="1" as="geometry" />
        </mxCell>
        <mxCell id="TotqGo9eTT_ibzo0r7ut-42" value="Creates" style="shape=rhombus;perimeter=rhombusPerimeter;whiteSpace=wrap;html=1;align=center;rotation=90;" vertex="1" parent="1">
          <mxGeometry x="850" y="810" width="120" height="60" as="geometry" />
        </mxCell>
        <mxCell id="TotqGo9eTT_ibzo0r7ut-43" value="" style="endArrow=none;html=1;rounded=0;entryX=0;entryY=0.5;entryDx=0;entryDy=0;exitX=0.5;exitY=1;exitDx=0;exitDy=0;" edge="1" parent="1" source="TotqGo9eTT_ibzo0r7ut-7" target="TotqGo9eTT_ibzo0r7ut-42">
          <mxGeometry width="50" height="50" relative="1" as="geometry">
            <mxPoint x="615" y="538" as="sourcePoint" />
            <mxPoint x="350" y="630" as="targetPoint" />
          </mxGeometry>
        </mxCell>
        <mxCell id="TotqGo9eTT_ibzo0r7ut-44" value="" style="endArrow=none;html=1;rounded=0;exitX=0.5;exitY=1;exitDx=0;exitDy=0;" edge="1" parent="1" source="TotqGo9eTT_ibzo0r7ut-8" target="TotqGo9eTT_ibzo0r7ut-41">
          <mxGeometry width="50" height="50" relative="1" as="geometry">
            <mxPoint x="405" y="548" as="sourcePoint" />
            <mxPoint x="140" y="640" as="targetPoint" />
          </mxGeometry>
        </mxCell>
        <mxCell id="TotqGo9eTT_ibzo0r7ut-47" value="Company" style="shape=ext;margin=3;double=1;whiteSpace=wrap;html=1;align=center;fillColor=#d0cee2;strokeColor=#56517e;" vertex="1" parent="1">
          <mxGeometry x="355" y="990" width="100" height="40" as="geometry" />
        </mxCell>
        <mxCell id="TotqGo9eTT_ibzo0r7ut-48" value="Store" style="shape=ext;margin=3;double=1;whiteSpace=wrap;html=1;align=center;fillColor=#fad7ac;strokeColor=#b46504;" vertex="1" parent="1">
          <mxGeometry x="860" y="990" width="100" height="40" as="geometry" />
        </mxCell>
        <mxCell id="TotqGo9eTT_ibzo0r7ut-52" value="CompanyId" style="ellipse;whiteSpace=wrap;html=1;align=center;fontStyle=4;" vertex="1" parent="1">
          <mxGeometry x="200" y="940" width="100" height="40" as="geometry" />
        </mxCell>
        <mxCell id="TotqGo9eTT_ibzo0r7ut-53" value="" style="endArrow=none;html=1;rounded=0;entryX=1;entryY=1;entryDx=0;entryDy=0;exitX=0;exitY=0.5;exitDx=0;exitDy=0;" edge="1" parent="1" source="TotqGo9eTT_ibzo0r7ut-47" target="TotqGo9eTT_ibzo0r7ut-52">
          <mxGeometry width="50" height="50" relative="1" as="geometry">
            <mxPoint x="260" y="1020" as="sourcePoint" />
            <mxPoint x="310" y="970" as="targetPoint" />
          </mxGeometry>
        </mxCell>
        <mxCell id="TotqGo9eTT_ibzo0r7ut-54" value="Name" style="ellipse;whiteSpace=wrap;html=1;align=center;" vertex="1" parent="1">
          <mxGeometry x="180" y="1000" width="100" height="40" as="geometry" />
        </mxCell>
        <mxCell id="TotqGo9eTT_ibzo0r7ut-55" value="Type of Product" style="ellipse;whiteSpace=wrap;html=1;align=center;" vertex="1" parent="1">
          <mxGeometry x="230" y="1070" width="100" height="40" as="geometry" />
        </mxCell>
        <mxCell id="TotqGo9eTT_ibzo0r7ut-56" value="Active" style="ellipse;whiteSpace=wrap;html=1;align=center;" vertex="1" parent="1">
          <mxGeometry x="490" y="1080" width="100" height="40" as="geometry" />
        </mxCell>
        <mxCell id="TotqGo9eTT_ibzo0r7ut-57" value="Type" style="ellipse;whiteSpace=wrap;html=1;align=center;" vertex="1" parent="1">
          <mxGeometry x="510" y="1020" width="100" height="40" as="geometry" />
        </mxCell>
        <mxCell id="TotqGo9eTT_ibzo0r7ut-58" value="Address" style="ellipse;whiteSpace=wrap;html=1;align=center;" vertex="1" parent="1">
          <mxGeometry x="500" y="940" width="100" height="40" as="geometry" />
        </mxCell>
        <mxCell id="TotqGo9eTT_ibzo0r7ut-59" value="Country" style="ellipse;whiteSpace=wrap;html=1;align=center;" vertex="1" parent="1">
          <mxGeometry x="457.5" y="890" width="100" height="40" as="geometry" />
        </mxCell>
        <mxCell id="TotqGo9eTT_ibzo0r7ut-60" value="Postal code" style="ellipse;whiteSpace=wrap;html=1;align=center;" vertex="1" parent="1">
          <mxGeometry x="272.5" y="890" width="100" height="40" as="geometry" />
        </mxCell>
        <mxCell id="TotqGo9eTT_ibzo0r7ut-61" value="" style="endArrow=none;html=1;rounded=0;exitX=0;exitY=0;exitDx=0;exitDy=0;" edge="1" parent="1" source="TotqGo9eTT_ibzo0r7ut-47" target="TotqGo9eTT_ibzo0r7ut-60">
          <mxGeometry width="50" height="50" relative="1" as="geometry">
            <mxPoint x="365" y="1020" as="sourcePoint" />
            <mxPoint x="295" y="984" as="targetPoint" />
          </mxGeometry>
        </mxCell>
        <mxCell id="TotqGo9eTT_ibzo0r7ut-62" value="" style="endArrow=none;html=1;rounded=0;exitX=0;exitY=0.5;exitDx=0;exitDy=0;entryX=1;entryY=0.5;entryDx=0;entryDy=0;" edge="1" parent="1" source="TotqGo9eTT_ibzo0r7ut-47" target="TotqGo9eTT_ibzo0r7ut-54">
          <mxGeometry width="50" height="50" relative="1" as="geometry">
            <mxPoint x="365" y="1000" as="sourcePoint" />
            <mxPoint x="340" y="940" as="targetPoint" />
          </mxGeometry>
        </mxCell>
        <mxCell id="TotqGo9eTT_ibzo0r7ut-63" value="" style="endArrow=none;html=1;rounded=0;exitX=0;exitY=0.5;exitDx=0;exitDy=0;entryX=0.6;entryY=0;entryDx=0;entryDy=0;entryPerimeter=0;" edge="1" parent="1" source="TotqGo9eTT_ibzo0r7ut-47" target="TotqGo9eTT_ibzo0r7ut-55">
          <mxGeometry width="50" height="50" relative="1" as="geometry">
            <mxPoint x="375" y="1010" as="sourcePoint" />
            <mxPoint x="350" y="950" as="targetPoint" />
          </mxGeometry>
        </mxCell>
        <mxCell id="TotqGo9eTT_ibzo0r7ut-64" value="" style="endArrow=none;html=1;rounded=0;exitX=0.75;exitY=1;exitDx=0;exitDy=0;entryX=0.039;entryY=0.331;entryDx=0;entryDy=0;entryPerimeter=0;" edge="1" parent="1" source="TotqGo9eTT_ibzo0r7ut-47" target="TotqGo9eTT_ibzo0r7ut-56">
          <mxGeometry width="50" height="50" relative="1" as="geometry">
            <mxPoint x="365" y="1020" as="sourcePoint" />
            <mxPoint x="310" y="1080" as="targetPoint" />
          </mxGeometry>
        </mxCell>
        <mxCell id="TotqGo9eTT_ibzo0r7ut-65" value="" style="endArrow=none;html=1;rounded=0;exitX=1;exitY=0.5;exitDx=0;exitDy=0;entryX=0;entryY=0.5;entryDx=0;entryDy=0;" edge="1" parent="1" source="TotqGo9eTT_ibzo0r7ut-47" target="TotqGo9eTT_ibzo0r7ut-57">
          <mxGeometry width="50" height="50" relative="1" as="geometry">
            <mxPoint x="415" y="1040" as="sourcePoint" />
            <mxPoint x="415" y="1090" as="targetPoint" />
          </mxGeometry>
        </mxCell>
        <mxCell id="TotqGo9eTT_ibzo0r7ut-66" value="" style="endArrow=none;html=1;rounded=0;exitX=1;exitY=0.5;exitDx=0;exitDy=0;entryX=0;entryY=0.5;entryDx=0;entryDy=0;" edge="1" parent="1" source="TotqGo9eTT_ibzo0r7ut-47" target="TotqGo9eTT_ibzo0r7ut-58">
          <mxGeometry width="50" height="50" relative="1" as="geometry">
            <mxPoint x="465" y="1020" as="sourcePoint" />
            <mxPoint x="525" y="1080" as="targetPoint" />
          </mxGeometry>
        </mxCell>
        <mxCell id="TotqGo9eTT_ibzo0r7ut-67" value="" style="endArrow=none;html=1;rounded=0;entryX=0;entryY=0.5;entryDx=0;entryDy=0;exitX=1;exitY=0.5;exitDx=0;exitDy=0;" edge="1" parent="1" source="TotqGo9eTT_ibzo0r7ut-47" target="TotqGo9eTT_ibzo0r7ut-59">
          <mxGeometry width="50" height="50" relative="1" as="geometry">
            <mxPoint x="460" y="1010" as="sourcePoint" />
            <mxPoint x="500" y="1030" as="targetPoint" />
          </mxGeometry>
        </mxCell>
        <mxCell id="TotqGo9eTT_ibzo0r7ut-71" value="CompanyId" style="ellipse;whiteSpace=wrap;html=1;align=center;fontStyle=4;" vertex="1" parent="1">
          <mxGeometry x="680" y="970" width="100" height="40" as="geometry" />
        </mxCell>
        <mxCell id="TotqGo9eTT_ibzo0r7ut-72" value="" style="endArrow=none;html=1;rounded=0;entryX=1;entryY=1;entryDx=0;entryDy=0;exitX=0;exitY=0.5;exitDx=0;exitDy=0;" edge="1" parent="1" source="TotqGo9eTT_ibzo0r7ut-48" target="TotqGo9eTT_ibzo0r7ut-71">
          <mxGeometry width="50" height="50" relative="1" as="geometry">
            <mxPoint x="825" y="1050" as="sourcePoint" />
            <mxPoint x="780" y="1010" as="targetPoint" />
          </mxGeometry>
        </mxCell>
        <mxCell id="TotqGo9eTT_ibzo0r7ut-73" value="Name" style="ellipse;whiteSpace=wrap;html=1;align=center;" vertex="1" parent="1">
          <mxGeometry x="680" y="1020" width="100" height="40" as="geometry" />
        </mxCell>
        <mxCell id="TotqGo9eTT_ibzo0r7ut-74" value="Type of Product" style="ellipse;whiteSpace=wrap;html=1;align=center;" vertex="1" parent="1">
          <mxGeometry x="742.5" y="1070" width="100" height="40" as="geometry" />
        </mxCell>
        <mxCell id="TotqGo9eTT_ibzo0r7ut-75" value="Active" style="ellipse;whiteSpace=wrap;html=1;align=center;" vertex="1" parent="1">
          <mxGeometry x="1000" y="1080" width="100" height="40" as="geometry" />
        </mxCell>
        <mxCell id="TotqGo9eTT_ibzo0r7ut-76" value="Type" style="ellipse;whiteSpace=wrap;html=1;align=center;" vertex="1" parent="1">
          <mxGeometry x="1010" y="1010" width="100" height="40" as="geometry" />
        </mxCell>
        <mxCell id="TotqGo9eTT_ibzo0r7ut-77" value="Address" style="ellipse;whiteSpace=wrap;html=1;align=center;" vertex="1" parent="1">
          <mxGeometry x="1010" y="950" width="100" height="40" as="geometry" />
        </mxCell>
        <mxCell id="TotqGo9eTT_ibzo0r7ut-78" value="Country" style="ellipse;whiteSpace=wrap;html=1;align=center;" vertex="1" parent="1">
          <mxGeometry x="1000" y="890" width="100" height="40" as="geometry" />
        </mxCell>
        <mxCell id="TotqGo9eTT_ibzo0r7ut-79" value="Postal code" style="ellipse;whiteSpace=wrap;html=1;align=center;" vertex="1" parent="1">
          <mxGeometry x="742.5" y="930" width="100" height="40" as="geometry" />
        </mxCell>
        <mxCell id="TotqGo9eTT_ibzo0r7ut-80" value="" style="endArrow=none;html=1;rounded=0;exitX=0;exitY=0.25;exitDx=0;exitDy=0;" edge="1" parent="1" source="TotqGo9eTT_ibzo0r7ut-48" target="TotqGo9eTT_ibzo0r7ut-79">
          <mxGeometry width="50" height="50" relative="1" as="geometry">
            <mxPoint x="825" y="1030" as="sourcePoint" />
            <mxPoint x="765" y="1024" as="targetPoint" />
          </mxGeometry>
        </mxCell>
        <mxCell id="TotqGo9eTT_ibzo0r7ut-81" value="" style="endArrow=none;html=1;rounded=0;exitX=0;exitY=0.5;exitDx=0;exitDy=0;entryX=1;entryY=0.5;entryDx=0;entryDy=0;" edge="1" parent="1" source="TotqGo9eTT_ibzo0r7ut-48" target="TotqGo9eTT_ibzo0r7ut-73">
          <mxGeometry width="50" height="50" relative="1" as="geometry">
            <mxPoint x="825" y="1050" as="sourcePoint" />
            <mxPoint x="810" y="980" as="targetPoint" />
          </mxGeometry>
        </mxCell>
        <mxCell id="TotqGo9eTT_ibzo0r7ut-82" value="" style="endArrow=none;html=1;rounded=0;entryX=0.6;entryY=0;entryDx=0;entryDy=0;entryPerimeter=0;exitX=0;exitY=0.5;exitDx=0;exitDy=0;" edge="1" parent="1" source="TotqGo9eTT_ibzo0r7ut-48" target="TotqGo9eTT_ibzo0r7ut-74">
          <mxGeometry width="50" height="50" relative="1" as="geometry">
            <mxPoint x="860" y="1010" as="sourcePoint" />
            <mxPoint x="820" y="990" as="targetPoint" />
          </mxGeometry>
        </mxCell>
        <mxCell id="TotqGo9eTT_ibzo0r7ut-83" value="" style="endArrow=none;html=1;rounded=0;exitX=0.75;exitY=1;exitDx=0;exitDy=0;entryX=0.5;entryY=0;entryDx=0;entryDy=0;" edge="1" parent="1" source="TotqGo9eTT_ibzo0r7ut-48" target="TotqGo9eTT_ibzo0r7ut-75">
          <mxGeometry width="50" height="50" relative="1" as="geometry">
            <mxPoint x="875" y="1070" as="sourcePoint" />
            <mxPoint x="780" y="1120" as="targetPoint" />
          </mxGeometry>
        </mxCell>
        <mxCell id="TotqGo9eTT_ibzo0r7ut-84" value="" style="endArrow=none;html=1;rounded=0;entryX=0.5;entryY=0;entryDx=0;entryDy=0;exitX=1;exitY=0.5;exitDx=0;exitDy=0;" edge="1" parent="1" source="TotqGo9eTT_ibzo0r7ut-48" target="TotqGo9eTT_ibzo0r7ut-76">
          <mxGeometry width="50" height="50" relative="1" as="geometry">
            <mxPoint x="960" y="1010" as="sourcePoint" />
            <mxPoint x="950" y="1090" as="targetPoint" />
          </mxGeometry>
        </mxCell>
        <mxCell id="TotqGo9eTT_ibzo0r7ut-85" value="" style="endArrow=none;html=1;rounded=0;exitX=1;exitY=0.5;exitDx=0;exitDy=0;entryX=0;entryY=0.5;entryDx=0;entryDy=0;" edge="1" parent="1" source="TotqGo9eTT_ibzo0r7ut-48" target="TotqGo9eTT_ibzo0r7ut-77">
          <mxGeometry width="50" height="50" relative="1" as="geometry">
            <mxPoint x="990" y="1010" as="sourcePoint" />
            <mxPoint x="1060" y="1080" as="targetPoint" />
          </mxGeometry>
        </mxCell>
        <mxCell id="TotqGo9eTT_ibzo0r7ut-86" value="" style="endArrow=none;html=1;rounded=0;entryX=0;entryY=0.5;entryDx=0;entryDy=0;exitX=1;exitY=0.5;exitDx=0;exitDy=0;" edge="1" parent="1" source="TotqGo9eTT_ibzo0r7ut-48" target="TotqGo9eTT_ibzo0r7ut-78">
          <mxGeometry width="50" height="50" relative="1" as="geometry">
            <mxPoint x="990" y="1010" as="sourcePoint" />
            <mxPoint x="1035" y="1030" as="targetPoint" />
          </mxGeometry>
        </mxCell>
        <mxCell id="TotqGo9eTT_ibzo0r7ut-94" style="edgeStyle=orthogonalEdgeStyle;rounded=0;orthogonalLoop=1;jettySize=auto;html=1;exitX=0;exitY=0.5;exitDx=0;exitDy=0;" edge="1" parent="1" source="TotqGo9eTT_ibzo0r7ut-87" target="TotqGo9eTT_ibzo0r7ut-89">
          <mxGeometry relative="1" as="geometry" />
        </mxCell>
        <mxCell id="TotqGo9eTT_ibzo0r7ut-87" value="Has" style="shape=rhombus;perimeter=rhombusPerimeter;whiteSpace=wrap;html=1;align=center;rotation=90;" vertex="1" parent="1">
          <mxGeometry x="62.5" y="7.5" width="105" height="60" as="geometry" />
        </mxCell>
        <mxCell id="TotqGo9eTT_ibzo0r7ut-89" value="Reports" style="whiteSpace=wrap;html=1;align=center;" vertex="1" parent="1">
          <mxGeometry x="65" y="-120" width="100" height="40" as="geometry" />
        </mxCell>
        <mxCell id="TotqGo9eTT_ibzo0r7ut-95" value="Types" style="ellipse;whiteSpace=wrap;html=1;align=center;" vertex="1" parent="1">
          <mxGeometry x="-100" y="-180" width="100" height="40" as="geometry" />
        </mxCell>
        <mxCell id="TotqGo9eTT_ibzo0r7ut-96" value="Product Type" style="ellipse;whiteSpace=wrap;html=1;align=center;" vertex="1" parent="1">
          <mxGeometry x="-17.5" y="-230" width="100" height="40" as="geometry" />
        </mxCell>
        <mxCell id="TotqGo9eTT_ibzo0r7ut-99" value="Name" style="ellipse;whiteSpace=wrap;html=1;align=center;fontStyle=4;" vertex="1" parent="1">
          <mxGeometry x="90" y="-230" width="100" height="40" as="geometry" />
        </mxCell>
        <mxCell id="TotqGo9eTT_ibzo0r7ut-100" value="Overall Sales" style="ellipse;whiteSpace=wrap;html=1;align=center;dashed=1;" vertex="1" parent="1">
          <mxGeometry x="190" y="-160" width="100" height="40" as="geometry" />
        </mxCell>
        <mxCell id="TotqGo9eTT_ibzo0r7ut-101" value="Time" style="ellipse;whiteSpace=wrap;html=1;align=center;" vertex="1" parent="1">
          <mxGeometry x="230" y="-210" width="100" height="40" as="geometry" />
        </mxCell>
        <mxCell id="TotqGo9eTT_ibzo0r7ut-102" value="Stock" style="ellipse;whiteSpace=wrap;html=1;align=center;" vertex="1" parent="1">
          <mxGeometry x="210" y="-110" width="100" height="40" as="geometry" />
        </mxCell>
        <mxCell id="TotqGo9eTT_ibzo0r7ut-103" value="" style="endArrow=none;html=1;rounded=0;exitX=0.5;exitY=0;exitDx=0;exitDy=0;" edge="1" parent="1" source="TotqGo9eTT_ibzo0r7ut-100" target="TotqGo9eTT_ibzo0r7ut-101">
          <mxGeometry width="50" height="50" relative="1" as="geometry">
            <mxPoint x="-190" y="-220" as="sourcePoint" />
            <mxPoint x="-140" y="-270" as="targetPoint" />
          </mxGeometry>
        </mxCell>
        <mxCell id="TotqGo9eTT_ibzo0r7ut-104" value="" style="endArrow=none;html=1;rounded=0;exitX=0.57;exitY=1.075;exitDx=0;exitDy=0;entryX=0.5;entryY=0;entryDx=0;entryDy=0;exitPerimeter=0;" edge="1" parent="1" source="TotqGo9eTT_ibzo0r7ut-100" target="TotqGo9eTT_ibzo0r7ut-102">
          <mxGeometry width="50" height="50" relative="1" as="geometry">
            <mxPoint x="320" y="-180" as="sourcePoint" />
            <mxPoint x="402" y="-207" as="targetPoint" />
          </mxGeometry>
        </mxCell>
        <mxCell id="TotqGo9eTT_ibzo0r7ut-105" value="" style="endArrow=none;html=1;rounded=0;entryX=0.5;entryY=1;entryDx=0;entryDy=0;exitX=0.63;exitY=0.025;exitDx=0;exitDy=0;exitPerimeter=0;" edge="1" parent="1" source="TotqGo9eTT_ibzo0r7ut-89" target="TotqGo9eTT_ibzo0r7ut-99">
          <mxGeometry width="50" height="50" relative="1" as="geometry">
            <mxPoint x="-60" y="-250" as="sourcePoint" />
            <mxPoint x="-10" y="-300" as="targetPoint" />
          </mxGeometry>
        </mxCell>
        <mxCell id="TotqGo9eTT_ibzo0r7ut-106" value="" style="endArrow=none;html=1;rounded=0;entryX=0.06;entryY=0.714;entryDx=0;entryDy=0;exitX=1;exitY=0.25;exitDx=0;exitDy=0;entryPerimeter=0;" edge="1" parent="1" source="TotqGo9eTT_ibzo0r7ut-89" target="TotqGo9eTT_ibzo0r7ut-100">
          <mxGeometry width="50" height="50" relative="1" as="geometry">
            <mxPoint x="160" y="-130" as="sourcePoint" />
            <mxPoint x="210" y="-180" as="targetPoint" />
          </mxGeometry>
        </mxCell>
        <mxCell id="TotqGo9eTT_ibzo0r7ut-107" value="" style="endArrow=none;html=1;rounded=0;entryX=0.5;entryY=1;entryDx=0;entryDy=0;exitX=0.57;exitY=0;exitDx=0;exitDy=0;exitPerimeter=0;" edge="1" parent="1" source="TotqGo9eTT_ibzo0r7ut-89" target="TotqGo9eTT_ibzo0r7ut-96">
          <mxGeometry width="50" height="50" relative="1" as="geometry">
            <mxPoint x="138" y="-109" as="sourcePoint" />
            <mxPoint x="190" y="-220" as="targetPoint" />
          </mxGeometry>
        </mxCell>
        <mxCell id="TotqGo9eTT_ibzo0r7ut-108" value="" style="endArrow=none;html=1;rounded=0;entryX=0;entryY=0.5;entryDx=0;entryDy=0;exitX=0.5;exitY=1;exitDx=0;exitDy=0;" edge="1" parent="1" source="TotqGo9eTT_ibzo0r7ut-95" target="TotqGo9eTT_ibzo0r7ut-89">
          <mxGeometry width="50" height="50" relative="1" as="geometry">
            <mxPoint x="-190" y="-150" as="sourcePoint" />
            <mxPoint x="-140" y="-200" as="targetPoint" />
          </mxGeometry>
        </mxCell>
        <mxCell id="TotqGo9eTT_ibzo0r7ut-109" value="Adds" style="shape=rhombus;perimeter=rhombusPerimeter;whiteSpace=wrap;html=1;align=center;rotation=90;" vertex="1" parent="1">
          <mxGeometry x="345" y="1180" width="120" height="60" as="geometry" />
        </mxCell>
        <mxCell id="TotqGo9eTT_ibzo0r7ut-110" value="Orders" style="shape=rhombus;perimeter=rhombusPerimeter;whiteSpace=wrap;html=1;align=center;rotation=0;" vertex="1" parent="1">
          <mxGeometry x="850" y="1180" width="120" height="60" as="geometry" />
        </mxCell>
        <mxCell id="TotqGo9eTT_ibzo0r7ut-111" value="" style="endArrow=none;html=1;rounded=0;exitX=0;exitY=0.5;exitDx=0;exitDy=0;entryX=0.5;entryY=1;entryDx=0;entryDy=0;" edge="1" parent="1" source="TotqGo9eTT_ibzo0r7ut-109" target="TotqGo9eTT_ibzo0r7ut-47">
          <mxGeometry width="50" height="50" relative="1" as="geometry">
            <mxPoint x="200" y="1240" as="sourcePoint" />
            <mxPoint x="400" y="1060" as="targetPoint" />
          </mxGeometry>
        </mxCell>
        <mxCell id="TotqGo9eTT_ibzo0r7ut-112" value="" style="endArrow=none;html=1;rounded=0;exitX=0.5;exitY=0;exitDx=0;exitDy=0;" edge="1" parent="1" source="TotqGo9eTT_ibzo0r7ut-110" target="TotqGo9eTT_ibzo0r7ut-48">
          <mxGeometry width="50" height="50" relative="1" as="geometry">
            <mxPoint x="920" y="1140" as="sourcePoint" />
            <mxPoint x="849" y="1120" as="targetPoint" />
          </mxGeometry>
        </mxCell>
        <mxCell id="TotqGo9eTT_ibzo0r7ut-117" style="edgeStyle=orthogonalEdgeStyle;rounded=0;orthogonalLoop=1;jettySize=auto;html=1;exitX=1;exitY=0.5;exitDx=0;exitDy=0;entryX=0.611;entryY=0;entryDx=0;entryDy=0;entryPerimeter=0;" edge="1" parent="1" source="TotqGo9eTT_ibzo0r7ut-87" target="TotqGo9eTT_ibzo0r7ut-2">
          <mxGeometry relative="1" as="geometry">
            <Array as="points">
              <mxPoint x="115" y="160" />
              <mxPoint x="415" y="160" />
            </Array>
          </mxGeometry>
        </mxCell>
        <mxCell id="TotqGo9eTT_ibzo0r7ut-118" value="Products" style="whiteSpace=wrap;html=1;align=center;" vertex="1" parent="1">
          <mxGeometry x="355" y="1430" width="100" height="40" as="geometry" />
        </mxCell>
        <mxCell id="TotqGo9eTT_ibzo0r7ut-121" value="" style="endArrow=none;html=1;rounded=0;entryX=1;entryY=0.5;entryDx=0;entryDy=0;exitX=0.5;exitY=0;exitDx=0;exitDy=0;" edge="1" parent="1" source="TotqGo9eTT_ibzo0r7ut-118" target="TotqGo9eTT_ibzo0r7ut-109">
          <mxGeometry width="50" height="50" relative="1" as="geometry">
            <mxPoint x="210" y="1400" as="sourcePoint" />
            <mxPoint x="260" y="1350" as="targetPoint" />
          </mxGeometry>
        </mxCell>
        <mxCell id="TotqGo9eTT_ibzo0r7ut-123" value="" style="endArrow=none;html=1;rounded=0;entryX=0;entryY=0.5;entryDx=0;entryDy=0;" edge="1" parent="1" target="TotqGo9eTT_ibzo0r7ut-110">
          <mxGeometry width="50" height="50" relative="1" as="geometry">
            <mxPoint x="480" y="1210" as="sourcePoint" />
            <mxPoint x="640" y="1230" as="targetPoint" />
          </mxGeometry>
        </mxCell>
        <mxCell id="TotqGo9eTT_ibzo0r7ut-124" value="ProductId" style="ellipse;whiteSpace=wrap;html=1;align=center;fontStyle=4;" vertex="1" parent="1">
          <mxGeometry x="200" y="1490" width="100" height="40" as="geometry" />
        </mxCell>
        <mxCell id="TotqGo9eTT_ibzo0r7ut-125" value="" style="endArrow=none;html=1;rounded=0;entryX=0;entryY=1;entryDx=0;entryDy=0;exitX=1.01;exitY=0.289;exitDx=0;exitDy=0;exitPerimeter=0;" edge="1" parent="1" source="TotqGo9eTT_ibzo0r7ut-124" target="TotqGo9eTT_ibzo0r7ut-118">
          <mxGeometry width="50" height="50" relative="1" as="geometry">
            <mxPoint x="110" y="1430" as="sourcePoint" />
            <mxPoint x="160" y="1380" as="targetPoint" />
          </mxGeometry>
        </mxCell>
        <mxCell id="TotqGo9eTT_ibzo0r7ut-126" value="Name" style="ellipse;whiteSpace=wrap;html=1;align=center;" vertex="1" parent="1">
          <mxGeometry x="220" y="1560" width="100" height="40" as="geometry" />
        </mxCell>
        <mxCell id="TotqGo9eTT_ibzo0r7ut-127" value="Stock ordered" style="ellipse;whiteSpace=wrap;html=1;align=center;" vertex="1" parent="1">
          <mxGeometry x="567.5" y="1660" width="100" height="40" as="geometry" />
        </mxCell>
        <mxCell id="TotqGo9eTT_ibzo0r7ut-128" value="Stock left" style="ellipse;whiteSpace=wrap;html=1;align=center;" vertex="1" parent="1">
          <mxGeometry x="390" y="1670" width="100" height="40" as="geometry" />
        </mxCell>
        <mxCell id="TotqGo9eTT_ibzo0r7ut-129" value="Type" style="ellipse;whiteSpace=wrap;html=1;align=center;" vertex="1" parent="1">
          <mxGeometry x="330" y="1600" width="100" height="40" as="geometry" />
        </mxCell>
        <mxCell id="TotqGo9eTT_ibzo0r7ut-131" value="Price" style="ellipse;whiteSpace=wrap;html=1;align=center;" vertex="1" parent="1">
          <mxGeometry x="490" y="1510" width="100" height="40" as="geometry" />
        </mxCell>
        <mxCell id="TotqGo9eTT_ibzo0r7ut-134" value="Amount" style="ellipse;whiteSpace=wrap;html=1;align=center;dashed=1;" vertex="1" parent="1">
          <mxGeometry x="467.5" y="1590" width="100" height="40" as="geometry" />
        </mxCell>
        <mxCell id="TotqGo9eTT_ibzo0r7ut-135" value="Stock Preorder" style="ellipse;whiteSpace=wrap;html=1;align=center;" vertex="1" parent="1">
          <mxGeometry x="477.5" y="1700" width="100" height="40" as="geometry" />
        </mxCell>
        <mxCell id="TotqGo9eTT_ibzo0r7ut-137" value="" style="endArrow=none;html=1;rounded=0;entryX=0.6;entryY=1;entryDx=0;entryDy=0;exitX=0.5;exitY=0;exitDx=0;exitDy=0;entryPerimeter=0;" edge="1" parent="1" source="TotqGo9eTT_ibzo0r7ut-128" target="TotqGo9eTT_ibzo0r7ut-134">
          <mxGeometry width="50" height="50" relative="1" as="geometry">
            <mxPoint x="422.5" y="1670" as="sourcePoint" />
            <mxPoint x="517.5" y="1630" as="targetPoint" />
          </mxGeometry>
        </mxCell>
        <mxCell id="TotqGo9eTT_ibzo0r7ut-138" value="" style="endArrow=none;html=1;rounded=0;exitX=0.5;exitY=0;exitDx=0;exitDy=0;entryX=0.567;entryY=0.968;entryDx=0;entryDy=0;entryPerimeter=0;" edge="1" parent="1" source="TotqGo9eTT_ibzo0r7ut-135" target="TotqGo9eTT_ibzo0r7ut-134">
          <mxGeometry width="50" height="50" relative="1" as="geometry">
            <mxPoint x="432.5" y="1680" as="sourcePoint" />
            <mxPoint x="517.5" y="1628" as="targetPoint" />
          </mxGeometry>
        </mxCell>
        <mxCell id="TotqGo9eTT_ibzo0r7ut-139" value="" style="endArrow=none;html=1;rounded=0;exitX=0.444;exitY=0.063;exitDx=0;exitDy=0;exitPerimeter=0;entryX=0.5;entryY=1;entryDx=0;entryDy=0;" edge="1" parent="1" source="TotqGo9eTT_ibzo0r7ut-127" target="TotqGo9eTT_ibzo0r7ut-134">
          <mxGeometry width="50" height="50" relative="1" as="geometry">
            <mxPoint x="442.5" y="1690" as="sourcePoint" />
            <mxPoint x="527.5" y="1630" as="targetPoint" />
          </mxGeometry>
        </mxCell>
        <mxCell id="TotqGo9eTT_ibzo0r7ut-140" value="" style="endArrow=none;html=1;rounded=0;entryX=0.336;entryY=0.956;entryDx=0;entryDy=0;entryPerimeter=0;exitX=1;exitY=0;exitDx=0;exitDy=0;" edge="1" parent="1" source="TotqGo9eTT_ibzo0r7ut-126" target="TotqGo9eTT_ibzo0r7ut-118">
          <mxGeometry width="50" height="50" relative="1" as="geometry">
            <mxPoint x="70" y="1530" as="sourcePoint" />
            <mxPoint x="120" y="1480" as="targetPoint" />
          </mxGeometry>
        </mxCell>
        <mxCell id="TotqGo9eTT_ibzo0r7ut-141" value="" style="endArrow=none;html=1;rounded=0;exitX=0.5;exitY=0;exitDx=0;exitDy=0;" edge="1" parent="1" source="TotqGo9eTT_ibzo0r7ut-131" target="TotqGo9eTT_ibzo0r7ut-118">
          <mxGeometry width="50" height="50" relative="1" as="geometry">
            <mxPoint x="315" y="1576" as="sourcePoint" />
            <mxPoint x="399" y="1478" as="targetPoint" />
          </mxGeometry>
        </mxCell>
        <mxCell id="TotqGo9eTT_ibzo0r7ut-142" value="" style="endArrow=none;html=1;rounded=0;entryX=0.5;entryY=1;entryDx=0;entryDy=0;exitX=0.5;exitY=0;exitDx=0;exitDy=0;" edge="1" parent="1" source="TotqGo9eTT_ibzo0r7ut-129" target="TotqGo9eTT_ibzo0r7ut-118">
          <mxGeometry width="50" height="50" relative="1" as="geometry">
            <mxPoint x="373" y="1602" as="sourcePoint" />
            <mxPoint x="409" y="1488" as="targetPoint" />
          </mxGeometry>
        </mxCell>
        <mxCell id="TotqGo9eTT_ibzo0r7ut-143" value="" style="endArrow=none;html=1;rounded=0;" edge="1" parent="1" source="TotqGo9eTT_ibzo0r7ut-134" target="TotqGo9eTT_ibzo0r7ut-118">
          <mxGeometry width="50" height="50" relative="1" as="geometry">
            <mxPoint x="390" y="1610" as="sourcePoint" />
            <mxPoint x="415" y="1480" as="targetPoint" />
          </mxGeometry>
        </mxCell>
        <mxCell id="TotqGo9eTT_ibzo0r7ut-145" value="Controls" style="shape=rhombus;perimeter=rhombusPerimeter;whiteSpace=wrap;html=1;align=center;" vertex="1" parent="1">
          <mxGeometry x="-160" y="1100" width="120" height="60" as="geometry" />
        </mxCell>
        <mxCell id="TotqGo9eTT_ibzo0r7ut-146" value="" style="endArrow=none;html=1;rounded=0;entryX=-0.001;entryY=0.459;entryDx=0;entryDy=0;entryPerimeter=0;exitX=1;exitY=0.5;exitDx=0;exitDy=0;" edge="1" parent="1" source="TotqGo9eTT_ibzo0r7ut-145" target="TotqGo9eTT_ibzo0r7ut-144">
          <mxGeometry width="50" height="50" relative="1" as="geometry">
            <mxPoint x="-90" y="1100" as="sourcePoint" />
            <mxPoint x="-40" y="1050" as="targetPoint" />
          </mxGeometry>
        </mxCell>
        <mxCell id="TotqGo9eTT_ibzo0r7ut-147" value="" style="endArrow=none;html=1;rounded=0;exitX=0.5;exitY=0;exitDx=0;exitDy=0;" edge="1" parent="1" source="TotqGo9eTT_ibzo0r7ut-145" target="TotqGo9eTT_ibzo0r7ut-5">
          <mxGeometry width="50" height="50" relative="1" as="geometry">
            <mxPoint x="-60" y="1140" as="sourcePoint" />
            <mxPoint x="149" y="1137" as="targetPoint" />
          </mxGeometry>
        </mxCell>
      </root>
    </mxGraphModel>
  </diagram>
</mxfile>
